<svg width="24" height="24" viewBox="0 0 24 24" fill="none" xmlns="http://www.w3.org/2000/svg">
<g clip-path="url(#clip0_4248_203)">
<path d="M7.23816 19.7034L4.56629 18.7565C4.28565 18.6569 4.09805 18.3915 4.09805 18.0937V1.99561H19.9019V18.0937C19.9019 18.3915 19.7144 18.6569 19.4337 18.7565L16.7513 19.7034C16.6771 19.7298 7.31363 19.7302 7.23816 19.7034Z" fill="#D98FF8"/>
<path d="M12 1.99561V19.7234C14.358 19.7233 16.7142 19.7166 16.7513 19.7034L19.4337 18.7565C19.7144 18.6569 19.9019 18.3915 19.9019 18.0937V1.99561H12Z" fill="#CA75F5"/>
<path d="M17.4375 2.10938H6.5625V23.2969C6.5625 23.6852 6.87731 24 7.26562 24C7.65394 24 7.96875 23.6852 7.96875 23.2969V22.5938H9.71873V23.2969C9.71873 23.6852 10.0335 24 10.4219 24C10.8102 24 11.125 23.6852 11.125 23.2969V22.5938H12.875V23.2969C12.875 23.6852 13.1898 24 13.5781 24C13.9664 24 14.2812 23.6852 14.2812 23.2969V22.5938H16.0312V23.2969C16.0312 23.6852 16.346 24 16.7343 24C17.1226 24 17.4375 23.6852 17.4375 23.2969L17.4375 2.10938Z" fill="#FF405C"/>
<path d="M12 2.10938V22.5938H12.875V23.2969C12.875 23.6852 13.1898 24 13.5781 24C13.9664 24 14.2812 23.6852 14.2812 23.2969V22.5938H16.0312V23.2969C16.0312 23.6852 16.346 24 16.7343 24C17.1226 24 17.4375 23.6852 17.4375 23.2969V2.10938H12Z" fill="#EA1C81"/>
<path d="M14.6379 10.9061C14.5633 10.6745 14.374 10.4979 14.1378 10.4394L13.1337 10.1907L12.5986 9.32256C12.4709 9.11533 12.2451 8.9889 12.0016 8.98834H12C11.7572 8.98834 11.5315 9.11364 11.4031 9.3198L10.8563 10.198L9.86537 10.4386C9.62883 10.496 9.4388 10.6717 9.36305 10.903C9.2873 11.1343 9.33657 11.3883 9.49332 11.5746L10.1595 12.3661L10.0821 13.3828C10.0636 13.6255 10.172 13.8605 10.3686 14.0041C10.5652 14.1476 10.8221 14.1793 11.0476 14.0877L12.0061 13.6987L12.9493 14.0865C13.0355 14.1219 13.1263 14.1393 13.2166 14.1393C13.3624 14.1393 13.5069 14.094 13.6287 14.0059C13.826 13.8633 13.9354 13.6288 13.9181 13.386L13.8443 12.3541L14.5045 11.577C14.6622 11.3916 14.7126 11.1378 14.6379 10.9061Z" fill="#FFF36C"/>
<path d="M20.1562 2.8125H3.84375C3.45544 2.8125 3.14062 2.49769 3.14062 2.10938C3.14062 1.72106 3.45544 1.40625 3.84375 1.40625H20.1562C20.5446 1.40625 20.8594 1.72106 20.8594 2.10938C20.8594 2.49769 20.5446 2.8125 20.1562 2.8125Z" fill="#F0F5FA"/>
<path d="M4.05938 2.9177C4.50556 1.84126 3.99464 0.606928 2.91821 0.160742C1.84177 -0.285443 0.607439 0.225477 0.161254 1.30191C-0.284932 2.37835 0.225988 3.61268 1.30243 4.05887C2.37886 4.50505 3.61319 3.99413 4.05938 2.9177Z" fill="#FFF36C"/>
<path d="M14.6379 10.9061C14.5633 10.6745 14.374 10.4979 14.1378 10.4394L13.1337 10.1907L12.5986 9.32256C12.4709 9.11533 12.2451 8.9889 12.0016 8.98834H12V13.7012L12.0062 13.6987L12.9494 14.0865C13.0355 14.122 13.1263 14.1393 13.2167 14.1393C13.3624 14.1393 13.507 14.094 13.6288 14.006C13.826 13.8633 13.9355 13.6288 13.9181 13.386L13.8443 12.3542L14.5046 11.577C14.6622 11.3916 14.7126 11.1378 14.6379 10.9061Z" fill="#FFDE46"/>
<path d="M20.1562 1.40625H12V2.8125H20.1562C20.5446 2.8125 20.8594 2.49769 20.8594 2.10938C20.8594 1.72106 20.5446 1.40625 20.1562 1.40625Z" fill="#D7E3F0"/>
<path d="M22.2258 4.19512C23.3757 4.00872 24.1567 2.9255 23.9703 1.77567C23.7839 0.625835 22.7007 -0.155183 21.5508 0.0312134C20.401 0.217609 19.62 1.30084 19.8064 2.45067C19.9928 3.6005 21.076 4.38152 22.2258 4.19512Z" fill="#FFDE46"/>
</g>
<defs>
<clipPath id="clip0_4248_203">
<rect width="24" height="24" fill="white"/>
</clipPath>
</defs>
</svg>
