<svg width="40" height="40" viewBox="0 0 40 40" fill="none" xmlns="http://www.w3.org/2000/svg">
<g opacity="0.15" clip-path="url(#clip0_4248_544)">
<path d="M29.2022 1.71875H23.5734C22.965 1.71875 22.4718 2.21195 22.4718 2.82031V2.93484C22.4718 8.80008 27.2435 13.5718 33.1088 13.5718H38.5078C39.1162 13.5718 39.6094 13.0786 39.6094 12.4702V12.1259C39.6094 6.38742 34.9407 1.71875 29.2022 1.71875Z" fill="#40D123"/>
<path d="M9.29688 27.1876C8.64969 27.1876 8.125 26.6629 8.125 26.0157V25.1227C8.125 20.9445 10.0926 18.4602 11.9953 16.0576C13.6781 13.9328 15.4182 11.7356 16.1608 8.10462L16.5081 6.40595C16.6378 5.77181 17.2572 5.36345 17.891 5.49259C18.5251 5.62228 18.934 6.24142 18.8043 6.87548L18.457 8.57415C17.6024 12.7527 15.5996 15.2815 13.8326 17.5127C12.0277 19.7919 10.4688 21.7602 10.4688 25.1227V26.0157C10.4688 26.6629 9.94406 27.1876 9.29688 27.1876Z" fill="#74564F"/>
<path d="M30.7422 27.1875C30.095 27.1875 29.5703 26.6628 29.5703 26.0156V25.1226C29.5703 21.7601 28.0114 19.7918 26.2064 17.5126C24.4394 15.2814 22.4366 12.7526 21.582 8.57404L21.2347 6.87537C21.105 6.24131 21.5139 5.62217 22.148 5.49248C22.782 5.36287 23.4012 5.7717 23.5309 6.40584L23.8782 8.10451C24.6207 11.7355 26.3609 13.9327 28.0437 16.0575C29.9464 18.4601 31.914 20.9444 31.914 25.1226V26.0156C31.9141 26.6628 31.3895 27.1875 30.7422 27.1875Z" fill="#604A43"/>
<path d="M17.0059 26.9416C15.7696 25.518 14.0495 24.7656 12.0318 24.7656C11.2387 24.7656 10.6066 24.9502 10.0987 25.0985C9.79523 25.1872 9.53305 25.2637 9.35594 25.2637C9.19117 25.2637 8.88711 25.1778 8.59305 25.0948C8.0739 24.9481 7.42781 24.7656 6.68023 24.7656C4.6625 24.7656 2.94242 25.518 1.70609 26.9416C0.605859 28.2081 0 29.9067 0 31.724C0 33.8411 0.847344 35.9055 2.32484 37.3882C3.51219 38.5797 5.69578 40 9.35602 40C13.0162 40 15.1998 38.5797 16.3872 37.3882C17.8646 35.9056 18.712 33.8412 18.712 31.7241C18.712 29.9067 18.1061 28.2082 17.0059 26.9416Z" fill="#FF405C"/>
<path d="M38.2939 26.9416C37.0575 25.518 35.3375 24.7656 33.3198 24.7656C32.5268 24.7656 31.8946 24.9502 31.3868 25.0985C31.0832 25.1872 30.8211 25.2637 30.644 25.2637C30.4792 25.2637 30.1751 25.1778 29.8811 25.0948C29.3619 24.9481 28.7157 24.7656 27.9682 24.7656C25.9505 24.7656 24.2304 25.518 22.9941 26.9416C21.8939 28.2082 21.2881 29.9067 21.2881 31.7241C21.2881 33.8412 22.1354 35.9056 23.6129 37.3883C24.8001 38.5797 26.9838 40 30.644 40C34.3043 40 36.4879 38.5797 37.6752 37.3882C39.1526 35.9057 40 33.8412 40 31.7241C40 29.9067 39.3941 28.2082 38.2939 26.9416Z" fill="#EA1C81"/>
<path d="M23.9408 8.40594L23.5136 1.10344C23.4773 0.483828 22.9643 0 22.3437 0H17.6562C17.032 0 16.5173 0.489375 16.4858 1.11273L16.1173 8.40594H23.9408Z" fill="#74564F"/>
<path d="M20 8.40594H23.9409L23.5136 1.10344C23.4773 0.483828 22.9644 0 22.3438 0H20V8.40594Z" fill="#604A43"/>
</g>
<defs>
<clipPath id="clip0_4248_544">
<rect width="40" height="40" fill="white"/>
</clipPath>
</defs>
</svg>
