<svg width="32" height="32" viewBox="0 0 32 32" fill="none" xmlns="http://www.w3.org/2000/svg">
<path d="M0 8C0 3.58172 3.58172 0 8 0H24C28.4183 0 32 3.58172 32 8V24C32 28.4183 28.4183 32 24 32H8C3.58172 32 0 28.4183 0 24V8Z" fill="#E12151"/>
<path d="M15 22.9999V9.76555L11.5146 11.8574C11.0411 12.1415 10.4267 11.988 10.1426 11.5146C9.85844 11.041 10.0119 10.4267 10.4853 10.1425L15.4853 7.14251C15.802 6.9525 16.1979 6.9525 16.5146 7.14251L21.5146 10.1425L21.5996 10.1991C22.0057 10.5025 22.1238 11.0706 21.8574 11.5146C21.5732 11.988 20.9589 12.1415 20.4853 11.8574L17 9.76555V22.9999C17 23.5522 16.5523 23.9999 16 23.9999C15.4477 23.9999 15 23.5522 15 22.9999Z" fill="white"/>
</svg>
